<svg width="512" height="512" viewBox="0 0 120 120" xmlns="http://www.w3.org/2000/svg">
  <defs>
    <radialGradient id="bgC" cx="50%" cy="50%" r="50%">
      <stop offset="0%" style="stop-color:#0a1800"/>
      <stop offset="100%" style="stop-color:#050805"/>
    </radialGradient>
    <radialGradient id="glowC" cx="50%" cy="50%" r="50%">
      <stop offset="0%" style="stop-color:#84cc16;stop-opacity:0.2"/>
      <stop offset="100%" style="stop-color:#84cc16;stop-opacity:0"/>
    </radialGradient>
    <filter id="glC">
      <feGaussianBlur stdDeviation="2.5" result="b"/>
      <feMerge><feMergeNode in="b"/><feMergeNode in="SourceGraphic"/></feMerge>
    </filter>
    <filter id="blipF">
      <feGaussianBlur stdDeviation="3" result="b"/>
      <feMerge><feMergeNode in="b"/><feMergeNode in="SourceGraphic"/></feMerge>
    </filter>
    <clipPath id="clipC"><circle cx="60" cy="60" r="52"/></clipPath>
  </defs>
  <rect width="120" height="120" fill="url(#bgC)"/>
  <circle cx="60" cy="60" r="60" fill="url(#glowC)"/>
  <circle cx="60" cy="60" r="44" fill="none" stroke="#84cc16" stroke-width="0.8" stroke-opacity="0.18"/>
  <circle cx="60" cy="60" r="30" fill="none" stroke="#84cc16" stroke-width="0.8" stroke-opacity="0.25"/>
  <circle cx="60" cy="60" r="16" fill="none" stroke="#84cc16" stroke-width="0.8" stroke-opacity="0.38"/>
  <circle cx="60" cy="60" r="22" fill="none" stroke="#84cc16" stroke-width="1.6" stroke-opacity="0.55"/>
  <circle cx="60" cy="60" r="36" fill="none" stroke="#a3e635" stroke-width="1" stroke-opacity="0.28"/>
  <circle cx="60" cy="60" r="48" fill="none" stroke="#84cc16" stroke-width="0.6" stroke-opacity="0.12"/>
  <g clip-path="url(#clipC)">
    <path d="M60,60 L100,22 A54,54 0 0,1 112,60 Z" fill="#84cc16" opacity="0.08"/>
    <line x1="67" y1="53" x2="93" y2="27" stroke="#84cc16" stroke-width="2" filter="url(#glC)" stroke-opacity="0.95"/>
  </g>
  <circle cx="34" cy="36" r="5" fill="#84cc16" filter="url(#blipF)" opacity="0.85"/>
  <circle cx="34" cy="36" r="2.5" fill="#ecfccb"/>
  <circle cx="87" cy="82" r="3.5" fill="#84cc16" filter="url(#blipF)" opacity="0.35"/>
  <circle cx="87" cy="82" r="1.5" fill="#a3e635" opacity="0.6"/>
  <circle cx="60" cy="60" r="4.5" fill="#84cc16" filter="url(#blipF)"/>
  <circle cx="60" cy="60" r="2" fill="#ecfccb"/>
</svg>
